<svg xmlns="http://www.w3.org/2000/svg" xmlns:xlink="http://www.w3.org/1999/xlink" width="500" zoomAndPan="magnify" viewBox="0 0 375 374.999991" height="500" preserveAspectRatio="xMidYMid meet" version="1.2"><defs><clipPath id="f5a2fa4ebd"><path d="M 254 134 L 270.308594 134 L 270.308594 230 L 254 230 Z M 254 134 "/></clipPath><clipPath id="11770a66a3"><path d="M 218 86.785156 L 241 86.785156 L 241 207 L 218 207 Z M 218 86.785156 "/></clipPath><clipPath id="49500ee649"><path d="M 172 163 L 270.308594 163 L 270.308594 233 L 172 233 Z M 172 163 "/></clipPath><clipPath id="9bce74f95c"><path d="M 104.558594 177 L 236 177 L 236 233 L 104.558594 233 Z M 104.558594 177 "/></clipPath></defs><g id="ee60bc1d3b"><rect x="0" width="375" y="0" height="374.999991" style="fill:#ffffff;fill-opacity:1;stroke:none;"/><rect x="0" width="375" y="0" height="374.999991" style="fill:#ffffff;fill-opacity:1;stroke:none;"/><g style="fill:#003999;fill-opacity:1;"><g transform="translate(94.954283, 265.377947)"><path style="stroke:none" d="M 6.71875 0.1875 C 6.007812 0.1875 5.320312 0.09375 4.65625 -0.09375 C 3.988281 -0.289062 3.375 -0.582031 2.8125 -0.96875 C 2.25 -1.363281 1.78125 -1.847656 1.40625 -2.421875 C 1.03125 -3.003906 0.78125 -3.691406 0.65625 -4.484375 L 3.1875 -5.140625 C 3.257812 -4.441406 3.460938 -3.867188 3.796875 -3.421875 C 4.140625 -2.984375 4.566406 -2.65625 5.078125 -2.4375 C 5.597656 -2.21875 6.15625 -2.109375 6.75 -2.109375 C 7.65625 -2.109375 8.363281 -2.320312 8.875 -2.75 C 9.382812 -3.175781 9.640625 -3.742188 9.640625 -4.453125 C 9.640625 -4.910156 9.523438 -5.300781 9.296875 -5.625 C 9.078125 -5.945312 8.78125 -6.226562 8.40625 -6.46875 C 8.03125 -6.707031 7.609375 -6.925781 7.140625 -7.125 C 6.671875 -7.320312 6.1875 -7.519531 5.6875 -7.71875 C 5.1875 -7.925781 4.703125 -8.15625 4.234375 -8.40625 C 3.765625 -8.65625 3.34375 -8.945312 2.96875 -9.28125 C 2.601562 -9.613281 2.304688 -10.015625 2.078125 -10.484375 C 1.859375 -10.953125 1.75 -11.515625 1.75 -12.171875 C 1.75 -12.867188 1.875 -13.488281 2.125 -14.03125 C 2.382812 -14.570312 2.738281 -15.03125 3.1875 -15.40625 C 3.644531 -15.78125 4.164062 -16.066406 4.75 -16.265625 C 5.34375 -16.460938 5.96875 -16.5625 6.625 -16.5625 C 7.613281 -16.5625 8.53125 -16.335938 9.375 -15.890625 C 10.226562 -15.453125 10.921875 -14.753906 11.453125 -13.796875 L 9.34375 -12.484375 C 9.050781 -13.066406 8.65625 -13.507812 8.15625 -13.8125 C 7.664062 -14.125 7.128906 -14.28125 6.546875 -14.28125 C 6.140625 -14.28125 5.765625 -14.195312 5.421875 -14.03125 C 5.085938 -13.875 4.816406 -13.644531 4.609375 -13.34375 C 4.410156 -13.050781 4.3125 -12.710938 4.3125 -12.328125 C 4.3125 -11.921875 4.421875 -11.566406 4.640625 -11.265625 C 4.867188 -10.972656 5.171875 -10.71875 5.546875 -10.5 C 5.921875 -10.28125 6.34375 -10.070312 6.8125 -9.875 C 7.28125 -9.6875 7.765625 -9.488281 8.265625 -9.28125 C 8.765625 -9.082031 9.25 -8.851562 9.71875 -8.59375 C 10.1875 -8.34375 10.609375 -8.039062 10.984375 -7.6875 C 11.359375 -7.332031 11.65625 -6.910156 11.875 -6.421875 C 12.09375 -5.929688 12.203125 -5.347656 12.203125 -4.671875 C 12.203125 -3.921875 12.0625 -3.242188 11.78125 -2.640625 C 11.5 -2.046875 11.109375 -1.535156 10.609375 -1.109375 C 10.109375 -0.691406 9.523438 -0.367188 8.859375 -0.140625 C 8.191406 0.078125 7.476562 0.1875 6.71875 0.1875 Z M 6.71875 0.1875 "/></g></g><g style="fill:#003999;fill-opacity:1;"><g transform="translate(112.380143, 265.377947)"><path style="stroke:none" d="M 2.203125 0.015625 L 2.203125 -16.328125 L 7.296875 -16.328125 C 8.046875 -16.328125 8.75 -16.21875 9.40625 -16 C 10.070312 -15.789062 10.65625 -15.484375 11.15625 -15.078125 C 11.664062 -14.671875 12.0625 -14.175781 12.34375 -13.59375 C 12.632812 -13.007812 12.78125 -12.34375 12.78125 -11.59375 C 12.78125 -10.894531 12.640625 -10.257812 12.359375 -9.6875 C 12.078125 -9.125 11.691406 -8.640625 11.203125 -8.234375 C 10.710938 -7.835938 10.144531 -7.539062 9.5 -7.34375 L 14.015625 0.015625 L 11.03125 0.015625 L 6.984375 -7.078125 L 4.8125 -7.078125 L 4.8125 0.015625 Z M 4.828125 -9.25 L 7.5625 -9.25 C 8.382812 -9.289062 9.03125 -9.507812 9.5 -9.90625 C 9.976562 -10.3125 10.21875 -10.863281 10.21875 -11.5625 C 10.21875 -12.070312 10.097656 -12.503906 9.859375 -12.859375 C 9.617188 -13.222656 9.28125 -13.503906 8.84375 -13.703125 C 8.414062 -13.898438 7.910156 -14 7.328125 -14 L 4.828125 -14 Z M 4.828125 -9.25 "/></g></g><g style="fill:#003999;fill-opacity:1;"><g transform="translate(131.24939, 265.377947)"><path style="stroke:none" d="M 2.203125 0 L 2.203125 -16.328125 L 4.8125 -16.328125 L 4.8125 0 Z M 2.203125 0 "/></g></g><g style="fill:#003999;fill-opacity:1;"><g transform="translate(142.659217, 265.377947)"><path style="stroke:none" d=""/></g></g><g style="fill:#003999;fill-opacity:1;"><g transform="translate(152.914336, 265.377947)"><path style="stroke:none" d="M 2.203125 0 L 2.203125 -16.328125 L 4.8125 -16.328125 L 4.8125 -7.46875 L 13.09375 -16.328125 L 16.53125 -16.328125 L 10.109375 -9.71875 L 16.71875 0 L 13.53125 0 L 8.328125 -7.96875 L 4.8125 -4.3125 L 4.8125 0 Z M 2.203125 0 "/></g></g><g style="fill:#003999;fill-opacity:1;"><g transform="translate(174.393224, 265.377947)"><path style="stroke:none" d="M 2.203125 0.015625 L 2.203125 -16.328125 L 7.296875 -16.328125 C 8.046875 -16.328125 8.75 -16.21875 9.40625 -16 C 10.070312 -15.789062 10.65625 -15.484375 11.15625 -15.078125 C 11.664062 -14.671875 12.0625 -14.175781 12.34375 -13.59375 C 12.632812 -13.007812 12.78125 -12.34375 12.78125 -11.59375 C 12.78125 -10.894531 12.640625 -10.257812 12.359375 -9.6875 C 12.078125 -9.125 11.691406 -8.640625 11.203125 -8.234375 C 10.710938 -7.835938 10.144531 -7.539062 9.5 -7.34375 L 14.015625 0.015625 L 11.03125 0.015625 L 6.984375 -7.078125 L 4.8125 -7.078125 L 4.8125 0.015625 Z M 4.828125 -9.25 L 7.5625 -9.25 C 8.382812 -9.289062 9.03125 -9.507812 9.5 -9.90625 C 9.976562 -10.3125 10.21875 -10.863281 10.21875 -11.5625 C 10.21875 -12.070312 10.097656 -12.503906 9.859375 -12.859375 C 9.617188 -13.222656 9.28125 -13.503906 8.84375 -13.703125 C 8.414062 -13.898438 7.910156 -14 7.328125 -14 L 4.828125 -14 Z M 4.828125 -9.25 "/></g></g><g style="fill:#003999;fill-opacity:1;"><g transform="translate(193.26247, 265.377947)"><path style="stroke:none" d="M 2.203125 0 L 2.203125 -16.328125 L 4.8125 -16.328125 L 4.8125 0 Z M 2.203125 0 "/></g></g><g style="fill:#003999;fill-opacity:1;"><g transform="translate(204.672298, 265.377947)"><path style="stroke:none" d="M 6.71875 0.1875 C 6.007812 0.1875 5.320312 0.09375 4.65625 -0.09375 C 3.988281 -0.289062 3.375 -0.582031 2.8125 -0.96875 C 2.25 -1.363281 1.78125 -1.847656 1.40625 -2.421875 C 1.03125 -3.003906 0.78125 -3.691406 0.65625 -4.484375 L 3.1875 -5.140625 C 3.257812 -4.441406 3.460938 -3.867188 3.796875 -3.421875 C 4.140625 -2.984375 4.566406 -2.65625 5.078125 -2.4375 C 5.597656 -2.21875 6.15625 -2.109375 6.75 -2.109375 C 7.65625 -2.109375 8.363281 -2.320312 8.875 -2.75 C 9.382812 -3.175781 9.640625 -3.742188 9.640625 -4.453125 C 9.640625 -4.910156 9.523438 -5.300781 9.296875 -5.625 C 9.078125 -5.945312 8.78125 -6.226562 8.40625 -6.46875 C 8.03125 -6.707031 7.609375 -6.925781 7.140625 -7.125 C 6.671875 -7.320312 6.1875 -7.519531 5.6875 -7.71875 C 5.1875 -7.925781 4.703125 -8.15625 4.234375 -8.40625 C 3.765625 -8.65625 3.34375 -8.945312 2.96875 -9.28125 C 2.601562 -9.613281 2.304688 -10.015625 2.078125 -10.484375 C 1.859375 -10.953125 1.75 -11.515625 1.75 -12.171875 C 1.75 -12.867188 1.875 -13.488281 2.125 -14.03125 C 2.382812 -14.570312 2.738281 -15.03125 3.1875 -15.40625 C 3.644531 -15.78125 4.164062 -16.066406 4.75 -16.265625 C 5.34375 -16.460938 5.96875 -16.5625 6.625 -16.5625 C 7.613281 -16.5625 8.53125 -16.335938 9.375 -15.890625 C 10.226562 -15.453125 10.921875 -14.753906 11.453125 -13.796875 L 9.34375 -12.484375 C 9.050781 -13.066406 8.65625 -13.507812 8.15625 -13.8125 C 7.664062 -14.125 7.128906 -14.28125 6.546875 -14.28125 C 6.140625 -14.28125 5.765625 -14.195312 5.421875 -14.03125 C 5.085938 -13.875 4.816406 -13.644531 4.609375 -13.34375 C 4.410156 -13.050781 4.3125 -12.710938 4.3125 -12.328125 C 4.3125 -11.921875 4.421875 -11.566406 4.640625 -11.265625 C 4.867188 -10.972656 5.171875 -10.71875 5.546875 -10.5 C 5.921875 -10.28125 6.34375 -10.070312 6.8125 -9.875 C 7.28125 -9.6875 7.765625 -9.488281 8.265625 -9.28125 C 8.765625 -9.082031 9.25 -8.851562 9.71875 -8.59375 C 10.1875 -8.34375 10.609375 -8.039062 10.984375 -7.6875 C 11.359375 -7.332031 11.65625 -6.910156 11.875 -6.421875 C 12.09375 -5.929688 12.203125 -5.347656 12.203125 -4.671875 C 12.203125 -3.921875 12.0625 -3.242188 11.78125 -2.640625 C 11.5 -2.046875 11.109375 -1.535156 10.609375 -1.109375 C 10.109375 -0.691406 9.523438 -0.367188 8.859375 -0.140625 C 8.191406 0.078125 7.476562 0.1875 6.71875 0.1875 Z M 6.71875 0.1875 "/></g></g><g style="fill:#003999;fill-opacity:1;"><g transform="translate(222.098158, 265.377947)"><path style="stroke:none" d="M 2.203125 0 L 2.203125 -16.328125 L 4.8125 -16.328125 L 4.8125 -9.328125 L 12.296875 -9.328125 L 12.296875 -16.328125 L 14.875 -16.328125 L 14.875 0 L 12.296875 0 L 12.296875 -7 L 4.8125 -7 L 4.8125 0 Z M 2.203125 0 "/></g></g><g style="fill:#003999;fill-opacity:1;"><g transform="translate(243.588593, 265.377947)"><path style="stroke:none" d="M 2.203125 0 L 2.203125 -16.328125 L 5.03125 -16.328125 L 11.953125 -3.96875 L 11.953125 -16.328125 L 14.453125 -16.328125 L 14.453125 0 L 11.59375 0 L 4.71875 -12.375 L 4.71875 0 Z M 2.203125 0 "/></g></g><g style="fill:#003999;fill-opacity:1;"><g transform="translate(264.651786, 265.377947)"><path style="stroke:none" d="M 0.328125 0 L 6.734375 -16.328125 L 8.6875 -16.328125 L 15.0625 0 L 12.265625 0 L 11.015625 -3.546875 L 4.40625 -3.546875 L 3.140625 0 Z M 5.296875 -5.796875 L 10.140625 -5.796875 L 7.71875 -12.515625 Z M 5.296875 -5.796875 "/></g></g><g style="fill:#45ede8;fill-opacity:1;"><g transform="translate(96.925766, 283.486738)"><path style="stroke:none" d="M 4.703125 0.125 C 4.140625 0.125 3.632812 0.046875 3.1875 -0.109375 C 2.75 -0.265625 2.363281 -0.484375 2.03125 -0.765625 C 1.707031 -1.046875 1.4375 -1.375 1.21875 -1.75 C 1.007812 -2.125 0.847656 -2.53125 0.734375 -2.96875 C 0.628906 -3.414062 0.578125 -3.878906 0.578125 -4.359375 C 0.578125 -4.835938 0.628906 -5.296875 0.734375 -5.734375 C 0.847656 -6.179688 1.007812 -6.59375 1.21875 -6.96875 C 1.4375 -7.351562 1.707031 -7.6875 2.03125 -7.96875 C 2.363281 -8.25 2.75 -8.46875 3.1875 -8.625 C 3.632812 -8.78125 4.144531 -8.859375 4.71875 -8.859375 C 5.5625 -8.859375 6.304688 -8.648438 6.953125 -8.234375 C 7.597656 -7.828125 8.085938 -7.21875 8.421875 -6.40625 L 7.140625 -5.890625 C 7.023438 -6.296875 6.84375 -6.617188 6.59375 -6.859375 C 6.351562 -7.097656 6.070312 -7.269531 5.75 -7.375 C 5.425781 -7.488281 5.070312 -7.546875 4.6875 -7.546875 C 4.207031 -7.546875 3.789062 -7.460938 3.4375 -7.296875 C 3.09375 -7.128906 2.8125 -6.898438 2.59375 -6.609375 C 2.375 -6.316406 2.210938 -5.984375 2.109375 -5.609375 C 2.003906 -5.234375 1.953125 -4.832031 1.953125 -4.40625 C 1.953125 -3.957031 2.003906 -3.535156 2.109375 -3.140625 C 2.210938 -2.753906 2.375 -2.410156 2.59375 -2.109375 C 2.820312 -1.816406 3.109375 -1.585938 3.453125 -1.421875 C 3.804688 -1.253906 4.226562 -1.171875 4.71875 -1.171875 C 5.09375 -1.171875 5.429688 -1.222656 5.734375 -1.328125 C 6.046875 -1.441406 6.320312 -1.625 6.5625 -1.875 C 6.800781 -2.125 7 -2.453125 7.15625 -2.859375 L 8.4375 -2.328125 C 8.09375 -1.535156 7.597656 -0.925781 6.953125 -0.5 C 6.304688 -0.0820312 5.554688 0.125 4.703125 0.125 Z M 4.703125 0.125 "/></g></g><g style="fill:#45ede8;fill-opacity:1;"><g transform="translate(113.483786, 283.486738)"><path style="stroke:none" d="M 4.6875 0.125 C 4.132812 0.125 3.632812 0.046875 3.1875 -0.109375 C 2.738281 -0.265625 2.351562 -0.484375 2.03125 -0.765625 C 1.707031 -1.046875 1.4375 -1.375 1.21875 -1.75 C 1.007812 -2.125 0.847656 -2.53125 0.734375 -2.96875 C 0.628906 -3.414062 0.578125 -3.878906 0.578125 -4.359375 C 0.578125 -4.835938 0.628906 -5.296875 0.734375 -5.734375 C 0.847656 -6.179688 1.007812 -6.59375 1.21875 -6.96875 C 1.4375 -7.34375 1.707031 -7.671875 2.03125 -7.953125 C 2.351562 -8.234375 2.738281 -8.453125 3.1875 -8.609375 C 3.632812 -8.765625 4.132812 -8.84375 4.6875 -8.84375 C 5.25 -8.84375 5.753906 -8.765625 6.203125 -8.609375 C 6.648438 -8.453125 7.035156 -8.234375 7.359375 -7.953125 C 7.679688 -7.671875 7.953125 -7.34375 8.171875 -6.96875 C 8.390625 -6.59375 8.550781 -6.179688 8.65625 -5.734375 C 8.757812 -5.296875 8.8125 -4.835938 8.8125 -4.359375 C 8.8125 -3.878906 8.757812 -3.414062 8.65625 -2.96875 C 8.550781 -2.53125 8.390625 -2.125 8.171875 -1.75 C 7.953125 -1.375 7.679688 -1.046875 7.359375 -0.765625 C 7.035156 -0.484375 6.648438 -0.265625 6.203125 -0.109375 C 5.753906 0.046875 5.25 0.125 4.6875 0.125 Z M 4.6875 -1.109375 C 5.175781 -1.109375 5.59375 -1.195312 5.9375 -1.375 C 6.28125 -1.550781 6.554688 -1.789062 6.765625 -2.09375 C 6.972656 -2.394531 7.125 -2.738281 7.21875 -3.125 C 7.320312 -3.519531 7.375 -3.929688 7.375 -4.359375 C 7.375 -4.785156 7.320312 -5.191406 7.21875 -5.578125 C 7.125 -5.972656 6.972656 -6.320312 6.765625 -6.625 C 6.554688 -6.925781 6.28125 -7.160156 5.9375 -7.328125 C 5.59375 -7.503906 5.175781 -7.59375 4.6875 -7.59375 C 4.207031 -7.59375 3.796875 -7.503906 3.453125 -7.328125 C 3.117188 -7.160156 2.84375 -6.925781 2.625 -6.625 C 2.414062 -6.320312 2.257812 -5.972656 2.15625 -5.578125 C 2.0625 -5.191406 2.015625 -4.785156 2.015625 -4.359375 C 2.015625 -3.929688 2.0625 -3.519531 2.15625 -3.125 C 2.257812 -2.738281 2.414062 -2.394531 2.625 -2.09375 C 2.84375 -1.789062 3.117188 -1.550781 3.453125 -1.375 C 3.796875 -1.195312 4.207031 -1.109375 4.6875 -1.109375 Z M 4.6875 -1.109375 "/></g></g><g style="fill:#45ede8;fill-opacity:1;"><g transform="translate(130.63342, 283.486738)"><path style="stroke:none" d="M 1.171875 0 L 1.171875 -8.703125 L 2.6875 -8.703125 L 6.375 -2.125 L 6.375 -8.703125 L 7.71875 -8.703125 L 7.71875 0 L 6.1875 0 L 2.515625 -6.609375 L 2.515625 0 Z M 1.171875 0 "/></g></g><g style="fill:#45ede8;fill-opacity:1;"><g transform="translate(147.283886, 283.486738)"><path style="stroke:none" d="M 3.578125 0.09375 C 3.203125 0.09375 2.835938 0.046875 2.484375 -0.046875 C 2.128906 -0.148438 1.800781 -0.304688 1.5 -0.515625 C 1.195312 -0.722656 0.945312 -0.984375 0.75 -1.296875 C 0.550781 -1.609375 0.414062 -1.972656 0.34375 -2.390625 L 1.703125 -2.75 C 1.742188 -2.375 1.851562 -2.066406 2.03125 -1.828125 C 2.207031 -1.585938 2.429688 -1.410156 2.703125 -1.296875 C 2.984375 -1.179688 3.28125 -1.125 3.59375 -1.125 C 4.082031 -1.125 4.460938 -1.238281 4.734375 -1.46875 C 5.003906 -1.695312 5.140625 -2 5.140625 -2.375 C 5.140625 -2.625 5.078125 -2.832031 4.953125 -3 C 4.835938 -3.175781 4.679688 -3.328125 4.484375 -3.453125 C 4.285156 -3.578125 4.0625 -3.691406 3.8125 -3.796875 C 3.5625 -3.910156 3.300781 -4.019531 3.03125 -4.125 C 2.769531 -4.226562 2.515625 -4.347656 2.265625 -4.484375 C 2.015625 -4.617188 1.785156 -4.773438 1.578125 -4.953125 C 1.378906 -5.128906 1.222656 -5.34375 1.109375 -5.59375 C 0.992188 -5.84375 0.9375 -6.144531 0.9375 -6.5 C 0.9375 -6.863281 1.003906 -7.191406 1.140625 -7.484375 C 1.273438 -7.773438 1.460938 -8.019531 1.703125 -8.21875 C 1.941406 -8.425781 2.21875 -8.582031 2.53125 -8.6875 C 2.851562 -8.789062 3.1875 -8.84375 3.53125 -8.84375 C 4.0625 -8.84375 4.550781 -8.722656 5 -8.484375 C 5.457031 -8.242188 5.828125 -7.867188 6.109375 -7.359375 L 4.984375 -6.65625 C 4.828125 -6.96875 4.613281 -7.207031 4.34375 -7.375 C 4.082031 -7.539062 3.800781 -7.625 3.5 -7.625 C 3.28125 -7.625 3.078125 -7.578125 2.890625 -7.484375 C 2.710938 -7.398438 2.570312 -7.28125 2.46875 -7.125 C 2.363281 -6.96875 2.3125 -6.785156 2.3125 -6.578125 C 2.3125 -6.359375 2.367188 -6.171875 2.484375 -6.015625 C 2.597656 -5.859375 2.753906 -5.722656 2.953125 -5.609375 C 3.160156 -5.492188 3.390625 -5.382812 3.640625 -5.28125 C 3.890625 -5.175781 4.144531 -5.066406 4.40625 -4.953125 C 4.675781 -4.847656 4.9375 -4.726562 5.1875 -4.59375 C 5.4375 -4.457031 5.660156 -4.289062 5.859375 -4.09375 C 6.054688 -3.90625 6.210938 -3.679688 6.328125 -3.421875 C 6.453125 -3.160156 6.515625 -2.851562 6.515625 -2.5 C 6.515625 -2.09375 6.4375 -1.726562 6.28125 -1.40625 C 6.132812 -1.09375 5.925781 -0.820312 5.65625 -0.59375 C 5.394531 -0.375 5.082031 -0.203125 4.71875 -0.078125 C 4.363281 0.0351562 3.984375 0.09375 3.578125 0.09375 Z M 3.578125 0.09375 "/></g></g><g style="fill:#45ede8;fill-opacity:1;"><g transform="translate(161.993114, 283.486738)"><path style="stroke:none" d="M 3 0 L 3 -7.5 L 0.203125 -7.5 L 0.203125 -8.703125 L 7.171875 -8.703125 L 7.171875 -7.5 L 4.390625 -7.5 L 4.390625 0 Z M 3 0 "/></g></g><g style="fill:#45ede8;fill-opacity:1;"><g transform="translate(177.12757, 283.486738)"><path style="stroke:none" d="M 1.171875 0.015625 L 1.171875 -8.703125 L 3.890625 -8.703125 C 4.296875 -8.703125 4.671875 -8.644531 5.015625 -8.53125 C 5.367188 -8.425781 5.679688 -8.265625 5.953125 -8.046875 C 6.222656 -7.828125 6.4375 -7.5625 6.59375 -7.25 C 6.75 -6.9375 6.828125 -6.582031 6.828125 -6.1875 C 6.828125 -5.8125 6.75 -5.472656 6.59375 -5.171875 C 6.445312 -4.867188 6.238281 -4.609375 5.96875 -4.390625 C 5.707031 -4.179688 5.410156 -4.023438 5.078125 -3.921875 L 7.484375 0.015625 L 5.890625 0.015625 L 3.734375 -3.78125 L 2.5625 -3.78125 L 2.5625 0.015625 Z M 2.578125 -4.9375 L 4.03125 -4.9375 C 4.46875 -4.957031 4.8125 -5.070312 5.0625 -5.28125 C 5.320312 -5.5 5.453125 -5.796875 5.453125 -6.171875 C 5.453125 -6.441406 5.390625 -6.671875 5.265625 -6.859375 C 5.140625 -7.054688 4.957031 -7.207031 4.71875 -7.3125 C 4.488281 -7.414062 4.21875 -7.46875 3.90625 -7.46875 L 2.578125 -7.46875 Z M 2.578125 -4.9375 "/></g></g><g style="fill:#45ede8;fill-opacity:1;"><g transform="translate(192.607134, 283.486738)"><path style="stroke:none" d="M 4.234375 0.125 C 3.660156 0.125 3.164062 0.0390625 2.75 -0.125 C 2.34375 -0.300781 2.007812 -0.539062 1.75 -0.84375 C 1.488281 -1.15625 1.296875 -1.519531 1.171875 -1.9375 C 1.046875 -2.363281 0.984375 -2.828125 0.984375 -3.328125 L 0.984375 -8.703125 L 2.375 -8.703125 L 2.375 -3.53125 C 2.375 -3.0625 2.425781 -2.648438 2.53125 -2.296875 C 2.632812 -1.953125 2.820312 -1.679688 3.09375 -1.484375 C 3.363281 -1.296875 3.742188 -1.203125 4.234375 -1.203125 C 4.710938 -1.203125 5.085938 -1.296875 5.359375 -1.484375 C 5.628906 -1.679688 5.816406 -1.953125 5.921875 -2.296875 C 6.035156 -2.648438 6.09375 -3.0625 6.09375 -3.53125 L 6.09375 -8.703125 L 7.46875 -8.703125 L 7.46875 -3.390625 C 7.46875 -2.878906 7.40625 -2.40625 7.28125 -1.96875 C 7.15625 -1.539062 6.960938 -1.171875 6.703125 -0.859375 C 6.441406 -0.546875 6.101562 -0.300781 5.6875 -0.125 C 5.28125 0.0390625 4.796875 0.125 4.234375 0.125 Z M 4.234375 0.125 "/></g></g><g style="fill:#45ede8;fill-opacity:1;"><g transform="translate(208.820047, 283.486738)"><path style="stroke:none" d="M 4.703125 0.125 C 4.140625 0.125 3.632812 0.046875 3.1875 -0.109375 C 2.75 -0.265625 2.363281 -0.484375 2.03125 -0.765625 C 1.707031 -1.046875 1.4375 -1.375 1.21875 -1.75 C 1.007812 -2.125 0.847656 -2.53125 0.734375 -2.96875 C 0.628906 -3.414062 0.578125 -3.878906 0.578125 -4.359375 C 0.578125 -4.835938 0.628906 -5.296875 0.734375 -5.734375 C 0.847656 -6.179688 1.007812 -6.59375 1.21875 -6.96875 C 1.4375 -7.351562 1.707031 -7.6875 2.03125 -7.96875 C 2.363281 -8.25 2.75 -8.46875 3.1875 -8.625 C 3.632812 -8.78125 4.144531 -8.859375 4.71875 -8.859375 C 5.5625 -8.859375 6.304688 -8.648438 6.953125 -8.234375 C 7.597656 -7.828125 8.085938 -7.21875 8.421875 -6.40625 L 7.140625 -5.890625 C 7.023438 -6.296875 6.84375 -6.617188 6.59375 -6.859375 C 6.351562 -7.097656 6.070312 -7.269531 5.75 -7.375 C 5.425781 -7.488281 5.070312 -7.546875 4.6875 -7.546875 C 4.207031 -7.546875 3.789062 -7.460938 3.4375 -7.296875 C 3.09375 -7.128906 2.8125 -6.898438 2.59375 -6.609375 C 2.375 -6.316406 2.210938 -5.984375 2.109375 -5.609375 C 2.003906 -5.234375 1.953125 -4.832031 1.953125 -4.40625 C 1.953125 -3.957031 2.003906 -3.535156 2.109375 -3.140625 C 2.210938 -2.753906 2.375 -2.410156 2.59375 -2.109375 C 2.820312 -1.816406 3.109375 -1.585938 3.453125 -1.421875 C 3.804688 -1.253906 4.226562 -1.171875 4.71875 -1.171875 C 5.09375 -1.171875 5.429688 -1.222656 5.734375 -1.328125 C 6.046875 -1.441406 6.320312 -1.625 6.5625 -1.875 C 6.800781 -2.125 7 -2.453125 7.15625 -2.859375 L 8.4375 -2.328125 C 8.09375 -1.535156 7.597656 -0.925781 6.953125 -0.5 C 6.304688 -0.0820312 5.554688 0.125 4.703125 0.125 Z M 4.703125 0.125 "/></g></g><g style="fill:#45ede8;fill-opacity:1;"><g transform="translate(225.378067, 283.486738)"><path style="stroke:none" d="M 3 0 L 3 -7.5 L 0.203125 -7.5 L 0.203125 -8.703125 L 7.171875 -8.703125 L 7.171875 -7.5 L 4.390625 -7.5 L 4.390625 0 Z M 3 0 "/></g></g><g style="fill:#45ede8;fill-opacity:1;"><g transform="translate(240.512523, 283.486738)"><path style="stroke:none" d="M 1.171875 0 L 1.171875 -8.703125 L 2.5625 -8.703125 L 2.5625 0 Z M 1.171875 0 "/></g></g><g style="fill:#45ede8;fill-opacity:1;"><g transform="translate(252.011019, 283.486738)"><path style="stroke:none" d="M 4.6875 0.125 C 4.132812 0.125 3.632812 0.046875 3.1875 -0.109375 C 2.738281 -0.265625 2.351562 -0.484375 2.03125 -0.765625 C 1.707031 -1.046875 1.4375 -1.375 1.21875 -1.75 C 1.007812 -2.125 0.847656 -2.53125 0.734375 -2.96875 C 0.628906 -3.414062 0.578125 -3.878906 0.578125 -4.359375 C 0.578125 -4.835938 0.628906 -5.296875 0.734375 -5.734375 C 0.847656 -6.179688 1.007812 -6.59375 1.21875 -6.96875 C 1.4375 -7.34375 1.707031 -7.671875 2.03125 -7.953125 C 2.351562 -8.234375 2.738281 -8.453125 3.1875 -8.609375 C 3.632812 -8.765625 4.132812 -8.84375 4.6875 -8.84375 C 5.25 -8.84375 5.753906 -8.765625 6.203125 -8.609375 C 6.648438 -8.453125 7.035156 -8.234375 7.359375 -7.953125 C 7.679688 -7.671875 7.953125 -7.34375 8.171875 -6.96875 C 8.390625 -6.59375 8.550781 -6.179688 8.65625 -5.734375 C 8.757812 -5.296875 8.8125 -4.835938 8.8125 -4.359375 C 8.8125 -3.878906 8.757812 -3.414062 8.65625 -2.96875 C 8.550781 -2.53125 8.390625 -2.125 8.171875 -1.75 C 7.953125 -1.375 7.679688 -1.046875 7.359375 -0.765625 C 7.035156 -0.484375 6.648438 -0.265625 6.203125 -0.109375 C 5.753906 0.046875 5.25 0.125 4.6875 0.125 Z M 4.6875 -1.109375 C 5.175781 -1.109375 5.59375 -1.195312 5.9375 -1.375 C 6.28125 -1.550781 6.554688 -1.789062 6.765625 -2.09375 C 6.972656 -2.394531 7.125 -2.738281 7.21875 -3.125 C 7.320312 -3.519531 7.375 -3.929688 7.375 -4.359375 C 7.375 -4.785156 7.320312 -5.191406 7.21875 -5.578125 C 7.125 -5.972656 6.972656 -6.320312 6.765625 -6.625 C 6.554688 -6.925781 6.28125 -7.160156 5.9375 -7.328125 C 5.59375 -7.503906 5.175781 -7.59375 4.6875 -7.59375 C 4.207031 -7.59375 3.796875 -7.503906 3.453125 -7.328125 C 3.117188 -7.160156 2.84375 -6.925781 2.625 -6.625 C 2.414062 -6.320312 2.257812 -5.972656 2.15625 -5.578125 C 2.0625 -5.191406 2.015625 -4.785156 2.015625 -4.359375 C 2.015625 -3.929688 2.0625 -3.519531 2.15625 -3.125 C 2.257812 -2.738281 2.414062 -2.394531 2.625 -2.09375 C 2.84375 -1.789062 3.117188 -1.550781 3.453125 -1.375 C 3.796875 -1.195312 4.207031 -1.109375 4.6875 -1.109375 Z M 4.6875 -1.109375 "/></g></g><g style="fill:#45ede8;fill-opacity:1;"><g transform="translate(269.160653, 283.486738)"><path style="stroke:none" d="M 1.171875 0 L 1.171875 -8.703125 L 2.6875 -8.703125 L 6.375 -2.125 L 6.375 -8.703125 L 7.71875 -8.703125 L 7.71875 0 L 6.1875 0 L 2.515625 -6.609375 L 2.515625 0 Z M 1.171875 0 "/></g></g><g clip-rule="nonzero" clip-path="url(#f5a2fa4ebd)"><path style=" stroke:none;fill-rule:evenodd;fill:#5ce1e6;fill-opacity:1;" d="M 262.085938 162.304688 L 266.632812 162.304688 L 266.632812 166.851562 L 262.085938 166.851562 Z M 262.085938 169.355469 L 266.632812 169.355469 L 266.632812 173.902344 L 262.085938 173.902344 Z M 262.085938 176.40625 L 266.632812 176.40625 L 266.632812 180.949219 L 262.085938 180.949219 Z M 262.085938 183.457031 L 266.632812 183.457031 L 266.632812 188.007812 L 262.085938 188.007812 Z M 262.085938 190.507812 L 266.632812 190.507812 L 266.632812 195.058594 L 262.085938 195.058594 Z M 262.085938 197.5625 L 266.632812 197.5625 L 266.632812 202.113281 L 262.085938 202.113281 Z M 262.085938 155.253906 L 266.632812 155.253906 L 266.632812 159.800781 L 262.085938 159.800781 Z M 270.308594 144.222656 L 254.921875 134.289062 L 254.921875 216.625 C 260.054688 220.886719 265.179688 225.140625 270.308594 229.410156 Z M 270.308594 144.222656 "/></g><path style=" stroke:none;fill-rule:evenodd;fill:#004aad;fill-opacity:1;" d="M 234.898438 137.875 L 240.992188 137.875 L 240.992188 143.96875 L 234.898438 143.96875 Z M 234.898438 147.328125 L 240.992188 147.328125 L 240.992188 153.425781 L 234.898438 153.425781 Z M 234.898438 156.785156 L 240.992188 156.785156 L 240.992188 162.878906 L 234.898438 162.878906 Z M 234.898438 166.238281 L 240.992188 166.238281 L 240.992188 172.332031 L 234.898438 172.332031 Z M 234.898438 175.691406 L 240.992188 175.691406 L 240.992188 181.785156 L 234.898438 181.785156 Z M 234.898438 185.144531 L 240.992188 185.144531 L 240.992188 191.238281 L 234.898438 191.238281 Z M 234.898438 128.421875 L 240.992188 128.421875 L 240.992188 134.515625 L 234.898438 134.515625 Z M 256.734375 123.945312 L 230.527344 107.019531 L 230.527344 196.363281 L 253.445312 215.394531 L 253.445312 131.570312 L 256.734375 133.695312 Z M 256.734375 123.945312 "/><g clip-rule="nonzero" clip-path="url(#11770a66a3)"><path style=" stroke:none;fill-rule:evenodd;fill:#5ce1e6;fill-opacity:1;" d="M 221.414062 205.925781 L 220.101562 206.109375 L 220.101562 204.835938 Z M 218.617188 101.148438 L 240.84375 86.792969 L 240.84375 111.925781 L 229.042969 104.304688 L 229.042969 195.132812 L 220.097656 187.703125 L 220.097656 117.464844 L 218.613281 118.40625 L 218.613281 101.148438 Z M 218.617188 101.148438 "/></g><path style=" stroke:none;fill-rule:evenodd;fill:#004aad;fill-opacity:1;" d="M 211.308594 137.992188 L 215.285156 137.992188 L 215.285156 141.96875 L 211.308594 141.96875 Z M 211.308594 144.164062 L 215.285156 144.164062 L 215.285156 148.140625 L 211.308594 148.140625 Z M 211.308594 150.328125 L 215.285156 150.328125 L 215.285156 154.308594 L 211.308594 154.308594 Z M 211.308594 156.5 L 215.285156 156.5 L 215.285156 160.476562 L 211.308594 160.476562 Z M 211.308594 162.667969 L 215.285156 162.667969 L 215.285156 166.648438 L 211.308594 166.648438 Z M 211.308594 168.835938 L 215.285156 168.835938 L 215.285156 172.8125 L 211.308594 172.8125 Z M 211.308594 131.820312 L 215.285156 131.820312 L 215.285156 135.800781 L 211.308594 135.800781 Z M 200.488281 131.714844 L 218.617188 120.164062 L 218.617188 186.46875 C 213.796875 182.460938 208.976562 178.453125 204.164062 174.445312 L 204.164062 140.515625 L 200.488281 142.890625 Z M 200.488281 131.714844 "/><path style=" stroke:none;fill-rule:evenodd;fill:#5ce1e6;fill-opacity:1;" d="M 187.300781 153.171875 L 202.679688 143.238281 L 202.679688 173.21875 C 198.070312 169.382812 193.457031 165.542969 188.855469 161.695312 L 187.300781 160.394531 Z M 187.300781 153.171875 "/><g clip-rule="nonzero" clip-path="url(#49500ee649)"><path style=" stroke:none;fill-rule:evenodd;fill:#004aad;fill-opacity:1;" d="M 187.300781 163.558594 C 204.695312 178.066406 243.925781 210.625 270.308594 232.5625 L 250.871094 232.5625 C 250.871094 230.792969 250.871094 229.015625 250.871094 227.246094 L 187.292969 174.417969 L 178.675781 181.609375 L 172.164062 176.179688 Z M 187.300781 163.558594 "/></g><path style=" stroke:none;fill-rule:evenodd;fill:#909295;fill-opacity:1;" d="M 187.300781 176.835938 L 247.703125 227.246094 L 243.035156 227.246094 L 187.300781 180.726562 L 182.457031 184.761719 L 180.125 182.820312 Z M 187.300781 176.835938 "/><g clip-rule="nonzero" clip-path="url(#9bce74f95c)"><path style=" stroke:none;fill-rule:evenodd;fill:#004aad;fill-opacity:1;" d="M 170.269531 177.761719 C 192.167969 196.03125 214.074219 214.300781 235.972656 232.5625 C 229.558594 232.5625 223.140625 232.5625 216.71875 232.5625 L 216.71875 227.371094 L 170.269531 188.625 L 123.8125 227.371094 L 123.8125 232.5625 C 117.398438 232.5625 110.980469 232.5625 104.558594 232.5625 Z M 170.269531 177.761719 "/></g><path style=" stroke:none;fill-rule:evenodd;fill:#909295;fill-opacity:1;" d="M 170.269531 191.039062 L 213.832031 227.371094 L 209.164062 227.371094 L 170.269531 194.929688 L 131.375 227.371094 L 126.707031 227.371094 Z M 170.269531 191.039062 "/><path style=" stroke:none;fill-rule:evenodd;fill:#004aad;fill-opacity:1;" d="M 169.476562 213.722656 C 165.066406 214.121094 161.570312 217.835938 161.515625 222.332031 L 169.476562 222.332031 Z M 179.023438 222.335938 C 178.96875 217.835938 175.472656 214.128906 171.0625 213.730469 L 171.0625 222.335938 Z M 171.0625 232.5625 L 179.023438 232.5625 L 179.023438 223.917969 L 171.0625 223.917969 Z M 161.515625 232.5625 L 169.476562 232.5625 L 169.476562 223.917969 L 161.515625 223.917969 Z M 161.515625 232.5625 "/></g></svg>